<svg xmlns="http://www.w3.org/2000/svg" width="63.308" height="63.309" viewBox="0 0 63.308 63.309">
  <path id="facebook" d="M9.274,63.308H29.923V40.8H22.5V33.385h7.419V24.112A9.284,9.284,0,0,1,39.2,14.838h9.274v7.419H41.052a3.714,3.714,0,0,0-3.709,3.709v7.419H48.136L46.9,40.8H37.342v22.5H54.035a9.284,9.284,0,0,0,9.274-9.274V9.274A9.284,9.284,0,0,0,54.035,0H9.274A9.284,9.284,0,0,0,0,9.274V54.035A9.284,9.284,0,0,0,9.274,63.308ZM3.709,9.274A5.571,5.571,0,0,1,9.274,3.709H54.035A5.571,5.571,0,0,1,59.6,9.274V54.035A5.571,5.571,0,0,1,54.035,59.6H41.052V44.514h8.99l2.473-14.838H41.052V25.966H52.18V11.128H39.2A13,13,0,0,0,26.214,24.112v5.564H18.795V44.514h7.419V59.6H9.274a5.571,5.571,0,0,1-5.564-5.564Zm0,0"/>
</svg>
