<svg xmlns="http://www.w3.org/2000/svg" width="48.584" height="47.778" viewBox="0 0 48.584 47.778">
  <g id="location" transform="translate(0 -5.246)">
    <g id="Group_91" data-name="Group 91" transform="translate(0 5.246)">
      <g id="Group_90" data-name="Group 90" transform="translate(0 0)">
        <path id="Path_98" data-name="Path 98" d="M93.181,38.1c2,2.821,4,5.344,5.322,6.969.193.236.373.456.548.667h-4a.81.81,0,1,0,0,1.619h12.956a.81.81,0,0,0,0-1.619h-4c.175-.211.355-.431.549-.667,1.323-1.619,3.32-4.148,5.322-6.969a71.144,71.144,0,0,0,5.349-8.621c1.653-3.247,2.492-5.943,2.492-8.012A16.184,16.184,0,0,0,112.986,10a.81.81,0,1,0-1.146,1.144,14.57,14.57,0,0,1,4.269,10.322c0,1.812-.779,4.261-2.316,7.277a69.536,69.536,0,0,1-5.228,8.421c-1.974,2.785-3.947,5.279-5.255,6.883-.435.533-.826,1-1.16,1.4a.82.82,0,0,1-1.234,0c-.334-.4-.725-.87-1.16-1.4-1.308-1.6-3.281-4.1-5.255-6.883a69.538,69.538,0,0,1-5.228-8.421c-1.538-3.016-2.316-5.465-2.316-7.277a14.579,14.579,0,0,1,20.251-13.45.81.81,0,0,0,.632-1.491,16.2,16.2,0,0,0-22.5,14.942c0,2.07.839,4.765,2.492,8.016A71.1,71.1,0,0,0,93.181,38.1Z" transform="translate(-77.242 -5.246)"/>
        <path id="Path_99" data-name="Path 99" d="M178.758,83.7a.81.81,0,0,0,0-1.619,8.1,8.1,0,1,0,5.726,2.372.81.81,0,1,0-1.145,1.145,6.478,6.478,0,1,1-4.581-1.9Z" transform="translate(-154.466 -74.794)"/>
        <path id="Path_100" data-name="Path 100" d="M48.279,373.863l-4.98-8.907a2.517,2.517,0,0,0-2.2-1.272H35.325a.81.81,0,1,0,0,1.619H41.1a.9.9,0,0,1,.791.442l4.978,8.907a.729.729,0,0,1-.007.748.891.891,0,0,1-.784.429H2.511a.891.891,0,0,1-.783-.429.729.729,0,0,1-.007-.748L6.7,365.745a.9.9,0,0,1,.79-.442H13.26a.81.81,0,1,0,0-1.619H7.489a2.518,2.518,0,0,0-2.2,1.272L.305,373.863A2.348,2.348,0,0,0,.33,376.22a2.494,2.494,0,0,0,2.181,1.229H46.074a2.494,2.494,0,0,0,2.18-1.229A2.348,2.348,0,0,0,48.279,373.863Z" transform="translate(0 -329.671)"/>
        <path id="Path_101" data-name="Path 101" d="M356.347,406.351h-3.239a.814.814,0,0,0-.449.136l-2.429,1.62a.81.81,0,0,0,.9,1.347l2.223-1.483h3a.81.81,0,0,0,0-1.62Z" transform="translate(-316.67 -368.29)"/>
        <path id="Path_102" data-name="Path 102" d="M366.937,458.361a.81.81,0,0,0,.81.81h6.478a.81.81,0,0,0,0-1.619h-6.478A.81.81,0,0,0,366.937,458.361Z" transform="translate(-332.118 -414.631)"/>
        <path id="Path_103" data-name="Path 103" d="M91.815,409.589a.81.81,0,0,0,.45-1.483l-2.429-1.62a.815.815,0,0,0-.45-.136H86.147a.81.81,0,1,0,0,1.619h3l2.225,1.483A.808.808,0,0,0,91.815,409.589Z" transform="translate(-77.239 -368.289)"/>
        <path id="Path_104" data-name="Path 104" d="M60.547,457.551a.81.81,0,0,0,0,1.619h6.478a.81.81,0,0,0,0-1.619Z" transform="translate(-54.069 -414.631)"/>
      </g>
    </g>
  </g>
</svg>
