<svg xmlns="http://www.w3.org/2000/svg" width="35.051" height="41.438" viewBox="0 0 35.051 41.438">
  <g id="Group_60" data-name="Group 60" transform="translate(-54.194 -5091.455)">
    <path id="Path_91" data-name="Path 91" d="M639.884,383.071a.691.691,0,0,0,.491-.2.7.7,0,0,0,0-.982l-5.686-5.686a.694.694,0,0,0-.982.982l5.686,5.686A.69.69,0,0,0,639.884,383.071Z" transform="translate(-555.493 4734.041)" fill="#fff"/>
    <path id="Path_92" data-name="Path 92" d="M692.884,330.071a.691.691,0,0,0,.491-.2.7.7,0,0,0,0-.982l-5.686-5.686a.694.694,0,1,0-.982.982l5.686,5.686A.691.691,0,0,0,692.884,330.071Z" transform="translate(-623.194 4772.34)" fill="#fff"/>
    <path id="Path_93" data-name="Path 93" d="M619.193,360.887h8.182a.693.693,0,0,0,0-1.387h-8.182a.693.693,0,1,0,0,1.387Z" transform="translate(-538.825 4745.962)" fill="#fff"/>
    <path id="Path_94" data-name="Path 94" d="M635.689,330.377a.69.69,0,0,0,.491-.2l4.993-4.993a.694.694,0,0,0-.982-.982l-4.993,4.993a.7.7,0,0,0,0,.982A.69.69,0,0,0,635.689,330.377Z" transform="translate(-556.707 4771.618)" fill="#fff"/>
    <path id="Path_95" data-name="Path 95" d="M670.693,317.6a.693.693,0,0,0,.693-.693v-7.212a.693.693,0,1,0-1.387,0V316.9A.693.693,0,0,0,670.693,317.6Z" transform="translate(-596.427 4782.455)" fill="#fff"/>
    <path id="Path_96" data-name="Path 96" d="M691.193,360.887h8.182a.693.693,0,0,0,0-1.387h-8.182a.693.693,0,0,0,0,1.387Z" transform="translate(-630.795 4745.962)" fill="#fff"/>
    <path id="Path_97" data-name="Path 97" d="M690.76,359.079v26.985a.277.277,0,0,1-.519.164l-6.826-9.86a1,1,0,0,0-.832-.43H670.429a.424.424,0,0,1-.277-.754l20.054-16.365a.327.327,0,0,1,.555.261Z" transform="translate(-615.8 4746.522)" fill="#fff"/>
  </g>
</svg>
