<svg id="Group_109" data-name="Group 109" xmlns="http://www.w3.org/2000/svg" xmlns:xlink="http://www.w3.org/1999/xlink" width="167.451" height="54.775" viewBox="0 0 167.451 54.775">
  <defs>
    <clipPath id="clip-path">
      <path id="Path_126" data-name="Path 126" d="M607.784,951l-7.55-4.36-14.565-8.409c-.808-.467-1.613-.184-1.613.791v34.262c0,.731.576,1.047,1.279.641l14.9-8.6,7.55-4.358,7.257-4.19c.852-.491.77-1.167.052-1.554S607.784,951,607.784,951Z" transform="translate(-584.056 -938.016)" fill="none"/>
    </clipPath>
    <linearGradient id="linear-gradient" x1="0.5" x2="0.5" y2="1" gradientUnits="objectBoundingBox">
      <stop offset="0" stop-color="#006aa2"/>
      <stop offset="0.345" stop-color="#2f8da6"/>
      <stop offset="0.786" stop-color="#66b6ac"/>
      <stop offset="1" stop-color="#7cc6af"/>
    </linearGradient>
    <linearGradient id="linear-gradient-2" y1="0.5" x2="1" y2="0.5" gradientUnits="objectBoundingBox">
      <stop offset="0" stop-color="#4ab59d"/>
      <stop offset="1" stop-color="#dfe385"/>
    </linearGradient>
    <linearGradient id="linear-gradient-3" x1="0.5" x2="0.5" y2="1" gradientUnits="objectBoundingBox">
      <stop offset="0" stop-color="#e4282d"/>
      <stop offset="0.316" stop-color="#ba2d4e"/>
      <stop offset="0.777" stop-color="#83357b"/>
      <stop offset="1" stop-color="#6e388d"/>
    </linearGradient>
    <linearGradient id="linear-gradient-4" x1="0.5" x2="0.5" y2="1" gradientUnits="objectBoundingBox">
      <stop offset="0" stop-color="#f07165"/>
      <stop offset="0.659" stop-color="#faa460"/>
      <stop offset="1" stop-color="#ffba5e"/>
    </linearGradient>
  </defs>
  <g id="Group_101" data-name="Group 101">
    <path id="Rectangle_50" data-name="Rectangle 50" d="M5.68,0H161.771a5.68,5.68,0,0,1,5.68,5.68V49.1a5.68,5.68,0,0,1-5.68,5.68H5.678A5.678,5.678,0,0,1,0,49.1V5.68A5.68,5.68,0,0,1,5.68,0Z" transform="translate(0 0)" fill="#1a1818"/>
    <g id="PLAY" transform="translate(12.56 11.123)">
      <g id="Group_96" data-name="Group 96" clip-path="url(#clip-path)">
        <path id="Path_122" data-name="Path 122" d="M584.056,937.573v37.094l18.7-18.547Z" transform="translate(-584.056 -938.15)" fill="url(#linear-gradient)"/>
        <path id="Path_123" data-name="Path 123" d="M607.785,951.169l-7.55-4.359-16.178-9.341v.135l18.7,18.547Z" transform="translate(-584.056 -938.181)" fill="url(#linear-gradient-2)"/>
        <path id="Path_124" data-name="Path 124" d="M584.056,970.35v.135l16.178-9.341,7.55-4.359-5.024-4.981Z" transform="translate(-584.056 -933.833)" fill="url(#linear-gradient-3)"/>
        <path id="Path_125" data-name="Path 125" d="M603.431,947.981l-5.024,4.982,5.024,4.981,8.629-4.981Z" transform="translate(-579.703 -934.993)" fill="url(#linear-gradient-4)"/>
      </g>
    </g>
    <g id="Group_97" data-name="Group 97" transform="translate(125.299 20.83)">
      <path id="Path_127" data-name="Path 127" d="M675.576,959.968a4.659,4.659,0,0,1-1.924-.388,3.614,3.614,0,0,1-1.462-1.2h-.119a14.3,14.3,0,0,1,.119,1.791v4.439h-1.633V948.984h1.328l.225,1.477h.079a3.8,3.8,0,0,1,1.466-1.279,4.448,4.448,0,0,1,1.92-.395,3.987,3.987,0,0,1,3.312,1.468,7.813,7.813,0,0,1-.018,8.244A4,4,0,0,1,675.576,959.968Zm-.237-9.793a2.894,2.894,0,0,0-2.39.916A4.7,4.7,0,0,0,672.19,954v.364a5.4,5.4,0,0,0,.759,3.254,2.88,2.88,0,0,0,2.431.979,2.53,2.53,0,0,0,2.191-1.131,5.372,5.372,0,0,0,.791-3.121,5.168,5.168,0,0,0-.791-3.1A2.61,2.61,0,0,0,675.339,950.175Z" transform="translate(-670.557 -944.456)" fill="#f9f9f9"/>
      <path id="Path_128" data-name="Path 128" d="M681.127,960.779h-1.634V945.464h1.634Z" transform="translate(-667.847 -945.464)" fill="#f9f9f9"/>
      <path id="Path_129" data-name="Path 129" d="M689.686,959.767l-.326-1.535h-.078a4.533,4.533,0,0,1-1.61,1.374,4.894,4.894,0,0,1-2,.359,3.6,3.6,0,0,1-2.515-.826,3.014,3.014,0,0,1-.911-2.352q0-3.267,5.226-3.425l1.832-.059v-.67a2.728,2.728,0,0,0-.547-1.874,2.243,2.243,0,0,0-1.746-.606,7.113,7.113,0,0,0-3.051.828l-.5-1.25a7.823,7.823,0,0,1,3.652-.925,4.1,4.1,0,0,1,2.86.856,3.573,3.573,0,0,1,.931,2.746v7.361Zm-3.691-1.151a3.319,3.319,0,0,0,2.4-.837,3.1,3.1,0,0,0,.871-2.343v-.974l-1.634.068a5.942,5.942,0,0,0-2.81.607,1.825,1.825,0,0,0-.86,1.668,1.679,1.679,0,0,0,.536,1.348A2.225,2.225,0,0,0,685.995,958.616Z" transform="translate(-667.012 -944.451)" fill="#f9f9f9"/>
      <path id="Path_130" data-name="Path 130" d="M689.61,948.938h1.752l2.363,6.153a23.624,23.624,0,0,1,.964,3.041h.079c.085-.335.265-.907.536-1.718s1.164-3.3,2.672-7.476h1.753l-4.636,12.284a6.13,6.13,0,0,1-1.61,2.585,3.425,3.425,0,0,1-2.259.762,6.624,6.624,0,0,1-1.477-.167v-1.309a5.718,5.718,0,0,0,1.211.117,2.5,2.5,0,0,0,2.4-1.89l.6-1.535Z" transform="translate(-664.778 -944.41)" fill="#f9f9f9"/>
    </g>
    <g id="Group_99" data-name="Group 99" transform="translate(50.816 19.625)">
      <path id="Path_131" data-name="Path 131" d="M653.144,949.9a3.675,3.675,0,0,1-.293,6.249,1.585,1.585,0,0,0-.632,1.107,1.235,1.235,0,0,0,.588.97l.812.631c.993.835,1.9,1.6,1.9,3.161,0,2.12-2.054,4.263-5.934,4.263-3.273,0-4.851-1.556-4.851-3.227a3.247,3.247,0,0,1,1.737-2.753,9.718,9.718,0,0,1,4.309-1.039,2.361,2.361,0,0,1-.676-1.533,2.043,2.043,0,0,1,.225-.881c-.249.024-.5.046-.723.046a3.567,3.567,0,0,1-3.744-3.541,4.056,4.056,0,0,1,1.444-3.024,6.15,6.15,0,0,1,4.04-1.242h4.646l-1.444.813Zm-1.6,10.019a3.346,3.346,0,0,0-.519-.025,9.027,9.027,0,0,0-2.369.364,2.533,2.533,0,0,0-1.941,2.324c0,1.6,1.557,2.753,3.973,2.753,2.165,0,3.316-1.04,3.316-2.437C654,961.741,653.257,961.135,651.542,959.916Zm.654-4.288a2.281,2.281,0,0,0,.563-1.647c0-1.624-.97-4.151-2.843-4.151a2.109,2.109,0,0,0-1.58.744,2.608,2.608,0,0,0-.5,1.67c0,1.512.881,4.017,2.822,4.017A2.31,2.31,0,0,0,652.2,955.628Z" transform="translate(-603.908 -943.161)" fill="#f9f9f9"/>
      <path id="Path_132" data-name="Path 132" d="M641.565,959.628a5.316,5.316,0,0,1-5.5-5.316,5.583,5.583,0,0,1,5.836-5.474,5.267,5.267,0,0,1,5.383,5.316A5.5,5.5,0,0,1,641.565,959.628Zm2.817-1.823a4.082,4.082,0,0,0,.676-2.5c0-1.982-.946-5.766-3.739-5.766a3.141,3.141,0,0,0-2.028.766,3.411,3.411,0,0,0-1.036,2.75c0,2.227,1.1,5.9,3.831,5.9A2.882,2.882,0,0,0,644.382,957.8Z" transform="translate(-606.534 -943.235)" fill="#f9f9f9"/>
      <path id="Path_133" data-name="Path 133" d="M632.2,959.628a5.315,5.315,0,0,1-5.5-5.316,5.582,5.582,0,0,1,5.835-5.474,5.266,5.266,0,0,1,5.383,5.316A5.5,5.5,0,0,1,632.2,959.628Zm2.816-1.823a4.082,4.082,0,0,0,.676-2.5c0-1.982-.948-5.766-3.741-5.766a3.138,3.138,0,0,0-2.027.766,3.41,3.41,0,0,0-1.036,2.75c0,2.227,1.1,5.9,3.829,5.9A2.884,2.884,0,0,0,635.014,957.8Z" transform="translate(-609.376 -943.235)" fill="#f9f9f9"/>
      <path id="Path_134" data-name="Path 134" d="M629.011,960.463l-3.239.747a23.957,23.957,0,0,1-3.737.385c-6.251,0-8.628-4.6-8.628-8.2,0-4.394,3.373-8.469,9.149-8.469a13.041,13.041,0,0,1,3.464.476,8.822,8.822,0,0,1,2.99,1.4l-1.879,1.79-.792.18.566-.906a6.472,6.472,0,0,0-4.846-2.128c-3.579,0-6.274,2.719-6.274,6.682a8.009,8.009,0,0,0,8.017,8.266,6.746,6.746,0,0,0,2.876-.567v-3.645l-3.42.181,1.812-.975h4.8l-.588.566a.525.525,0,0,0-.227.362c-.023.2-.046.862-.046,1.088Z" transform="translate(-613.408 -944.422)" fill="#f9f9f9"/>
      <path id="Path_135" data-name="Path 135" d="M657.8,959.927c-.748-.068-.9-.2-.9-1.087v-12.82l.012-.146c.091-.792.318-.928,1.021-1.336h-3.24l-1.7.816h1.731v13.983c0,.452-.09.521-.611,1.2h4.009l.838-.5C658.568,960,658.182,959.973,657.8,959.927Z" transform="translate(-601.403 -944.539)" fill="#f9f9f9"/>
      <path id="Path_136" data-name="Path 136" d="M665.66,958.83c-.248.136-.494.293-.742.405a5.253,5.253,0,0,1-2.183.427,4.808,4.808,0,0,1-2.992-.878,5.82,5.82,0,0,1-2.292-4.745,5.1,5.1,0,0,1,5.151-5.2,4.373,4.373,0,0,1,2.317.63,3.729,3.729,0,0,1,1.573,2.226l-5.285,2.137-1.732.134c.562,2.857,2.5,4.52,4.633,4.52a5.816,5.816,0,0,0,2.745-.786Zm-2.114-6.7c.426-.158.652-.293.652-.607a2.231,2.231,0,0,0-2.227-1.934c-.9,0-2.586.7-2.586,3.125,0,.383.044.787.068,1.194Z" transform="translate(-600.049 -943.233)" fill="#f9f9f9"/>
      <g id="Group_98" data-name="Group 98" transform="translate(67.11 5.611)">
        <path id="Path_137" data-name="Path 137" d="M665.57,949v1.484h-.18V949H664.9v-.154h1.163V949Z" transform="translate(-664.899 -948.844)" fill="#f9f9f9"/>
        <path id="Path_138" data-name="Path 138" d="M667.255,950.482v-1.5h-.009l-.456,1.5h-.142l-.46-1.5h-.007v1.5h-.163v-1.638h.28l.417,1.324h.007l.411-1.324h.284v1.638Z" transform="translate(-664.56 -948.844)" fill="#f9f9f9"/>
      </g>
    </g>
    <g id="Group_100" data-name="Group 100" transform="translate(50.853 11.035)">
      <path id="Path_139" data-name="Path 139" d="M617.9,942.608h-1.126a7.509,7.509,0,0,0-.319-1.315h-1.625a6.832,6.832,0,0,0-.331,1.315h-1.058q0-.137.821-2.251a17.636,17.636,0,0,0,.821-2.328h1.329a19.6,19.6,0,0,0,.744,2.3A20.017,20.017,0,0,1,617.9,942.608Zm-1.625-1.986a19.871,19.871,0,0,1-.6-1.963h-.056q0,.137-.623,1.963Z" transform="translate(-613.437 -937.923)" fill="#f7f8f8"/>
      <path id="Path_140" data-name="Path 140" d="M621.216,942.608h-.868a8.629,8.629,0,0,0-.967-1.522,8.335,8.335,0,0,1-1.153-1.988h-.057a12.392,12.392,0,0,1,.089,1.393q0,.868.05,2.117h-.865q.053-1.089.052-2.394,0-1.285-.052-2.184h1.044a6.564,6.564,0,0,0,.869,1.487,8.816,8.816,0,0,1,1.062,1.875h.052a13.351,13.351,0,0,1-.085-1.408q0-.952-.048-1.955h.878q-.049.872-.05,2.184T621.216,942.608Z" transform="translate(-612.222 -937.923)" fill="#f7f8f8"/>
      <path id="Path_141" data-name="Path 141" d="M625.149,940.165a2.6,2.6,0,0,1-.64,1.745,2.237,2.237,0,0,1-1.793.745q-.52,0-1.435-.043.045-1.061.046-2.394,0-1.281-.046-2.184h.615c.1,0,.251,0,.451-.01s.328-.01.39-.01a2.373,2.373,0,0,1,1.842.633A2.186,2.186,0,0,1,625.149,940.165Zm-.959.151a1.7,1.7,0,0,0-.395-1.138,1.494,1.494,0,0,0-1.2-.461,3.734,3.734,0,0,0-.414.031q.035.7.035,1.47,0,.841.035,1.667a2.363,2.363,0,0,0,.457.046,1.325,1.325,0,0,0,1.12-.47A1.811,1.811,0,0,0,624.19,940.316Z" transform="translate(-611.058 -937.928)" fill="#f7f8f8"/>
      <path id="Path_142" data-name="Path 142" d="M628.718,942.613h-1.04a6.921,6.921,0,0,0-.627-1.537.819.819,0,0,0-.7-.292q-.205,0-.391,0,0,.9.031,1.825h-.977q.047-1.061.046-2.394,0-1.281-.046-2.184h.609c.07,0,.218,0,.442-.01s.43-.01.62-.01q1.615,0,1.615,1.1a1.24,1.24,0,0,1-.921,1.221v.052a1.1,1.1,0,0,1,.622.554A12.181,12.181,0,0,1,628.718,942.613Zm-1.318-3.235c0-.467-.3-.7-.9-.7a2.99,2.99,0,0,0-.584.049c.026.364.038.837.038,1.421.129,0,.239.006.327.006Q627.4,940.154,627.4,939.378Z" transform="translate(-609.926 -937.928)" fill="#f7f8f8"/>
      <path id="Path_143" data-name="Path 143" d="M632.765,940.259a2.524,2.524,0,0,1-.661,1.79,2.141,2.141,0,0,1-1.636.71,2.063,2.063,0,0,1-1.554-.652,2.3,2.3,0,0,1-.627-1.658,2.52,2.52,0,0,1,.662-1.791,2.144,2.144,0,0,1,1.634-.71,2.069,2.069,0,0,1,1.555.65A2.3,2.3,0,0,1,632.765,940.259Zm-.97.1a1.82,1.82,0,0,0-.377-1.193,1.161,1.161,0,0,0-.928-.456,1.073,1.073,0,0,0-.873.46,1.841,1.841,0,0,0-.358,1.164,1.817,1.817,0,0,0,.378,1.191,1.162,1.162,0,0,0,.927.459,1.069,1.069,0,0,0,.872-.463A1.838,1.838,0,0,0,631.8,940.36Z" transform="translate(-608.932 -937.948)" fill="#f7f8f8"/>
      <path id="Path_144" data-name="Path 144" d="M633.481,942.608h-1q.047-1.089.046-2.394,0-1.285-.046-2.184h1q-.045.886-.046,2.184Q633.435,941.539,633.481,942.608Z" transform="translate(-607.659 -937.923)" fill="#f7f8f8"/>
      <path id="Path_145" data-name="Path 145" d="M638.06,940.165a2.6,2.6,0,0,1-.64,1.745,2.237,2.237,0,0,1-1.793.745q-.52,0-1.435-.043.045-1.061.046-2.394,0-1.281-.046-2.184h.615c.1,0,.251,0,.451-.01s.328-.01.39-.01a2.373,2.373,0,0,1,1.842.633A2.187,2.187,0,0,1,638.06,940.165Zm-.961.151a1.693,1.693,0,0,0-.394-1.138,1.494,1.494,0,0,0-1.2-.461,3.734,3.734,0,0,0-.414.031q.035.7.035,1.47,0,.841.035,1.667a2.363,2.363,0,0,0,.457.046,1.325,1.325,0,0,0,1.12-.47A1.81,1.81,0,0,0,637.1,940.316Z" transform="translate(-607.141 -937.928)" fill="#f7f8f8"/>
      <path id="Path_146" data-name="Path 146" d="M643.387,942.608h-1.126a7.441,7.441,0,0,0-.321-1.315h-1.624a6.832,6.832,0,0,0-.331,1.315h-1.058q0-.137.821-2.251a17.626,17.626,0,0,0,.821-2.328H641.9a19.3,19.3,0,0,0,.744,2.3A20.334,20.334,0,0,1,643.387,942.608Zm-1.625-1.986a19.7,19.7,0,0,1-.6-1.963H641.1q0,.137-.622,1.963Z" transform="translate(-605.705 -937.923)" fill="#f7f8f8"/>
      <path id="Path_147" data-name="Path 147" d="M646.273,939.233a1.373,1.373,0,0,1-.624,1.242,2.776,2.776,0,0,1-1.531.4c-.111,0-.189,0-.236-.006q0,.661.039,1.744h-.988q.045-1.015.046-2.394,0-1.267-.046-2.184h.611c.087,0,.254,0,.5-.01s.46-.01.641-.01a2.013,2.013,0,0,1,1.129.3A1.024,1.024,0,0,1,646.273,939.233Zm-.907.194q0-.753-1-.753a2.834,2.834,0,0,0-.528.053q.039.665.039,1.505c.057,0,.126.006.2.006Q645.367,940.239,645.366,939.427Z" transform="translate(-604.49 -937.928)" fill="#f7f8f8"/>
      <path id="Path_148" data-name="Path 148" d="M649.511,939.233a1.373,1.373,0,0,1-.624,1.242,2.78,2.78,0,0,1-1.533.4c-.109,0-.188,0-.235-.006q0,.661.038,1.744h-.988q.045-1.015.046-2.394,0-1.267-.046-2.184h.613c.086,0,.253,0,.5-.01s.459-.01.64-.01a2.011,2.011,0,0,1,1.129.3A1.022,1.022,0,0,1,649.511,939.233Zm-.908.194q0-.753-1-.753a2.835,2.835,0,0,0-.528.053q.039.665.039,1.505c.059,0,.126.006.2.006Q648.6,940.239,648.6,939.427Z" transform="translate(-603.509 -937.928)" fill="#f7f8f8"/>
      <path id="Path_149" data-name="Path 149" d="M655.066,940.259a2.52,2.52,0,0,1-.662,1.79,2.14,2.14,0,0,1-1.634.71,2.066,2.066,0,0,1-1.555-.652,2.3,2.3,0,0,1-.626-1.658,2.525,2.525,0,0,1,.661-1.791,2.147,2.147,0,0,1,1.636-.71,2.066,2.066,0,0,1,1.554.65A2.3,2.3,0,0,1,655.066,940.259Zm-.971.1a1.813,1.813,0,0,0-.377-1.193,1.159,1.159,0,0,0-.928-.456,1.069,1.069,0,0,0-.872.46,1.834,1.834,0,0,0-.36,1.164,1.811,1.811,0,0,0,.379,1.191,1.16,1.16,0,0,0,.927.459,1.072,1.072,0,0,0,.872-.463A1.845,1.845,0,0,0,654.095,940.36Z" transform="translate(-602.168 -937.948)" fill="#f7f8f8"/>
      <path id="Path_150" data-name="Path 150" d="M658.559,942.608h-.868a8.629,8.629,0,0,0-.967-1.522,8.335,8.335,0,0,1-1.153-1.988h-.057a12.421,12.421,0,0,1,.089,1.393q0,.868.05,2.117h-.865q.053-1.089.052-2.394,0-1.285-.052-2.184h1.044a6.624,6.624,0,0,0,.869,1.487,8.75,8.75,0,0,1,1.062,1.875h.052a13.318,13.318,0,0,1-.085-1.408q0-.952-.048-1.955h.878q-.049.872-.05,2.184T658.559,942.608Z" transform="translate(-600.895 -937.923)" fill="#f7f8f8"/>
    </g>
  </g>
</svg>
