<svg id="instagram" xmlns="http://www.w3.org/2000/svg" width="63.308" height="63.309" viewBox="0 0 63.308 63.309">
  <path id="Path_115" data-name="Path 115" d="M9.274,63.308H54.035a9.284,9.284,0,0,0,9.274-9.274V9.274A9.284,9.284,0,0,0,54.035,0H9.274A9.284,9.284,0,0,0,0,9.274V54.035A9.284,9.284,0,0,0,9.274,63.308ZM3.709,9.274A5.571,5.571,0,0,1,9.274,3.709H54.035A5.571,5.571,0,0,1,59.6,9.274V54.035A5.571,5.571,0,0,1,54.035,59.6H9.274a5.571,5.571,0,0,1-5.564-5.564Zm0,0"/>
  <path id="Path_116" data-name="Path 116" d="M137.693,154.385A16.693,16.693,0,1,0,121,137.693,16.712,16.712,0,0,0,137.693,154.385Zm0-29.676a12.983,12.983,0,1,1-12.983,12.983A13,13,0,0,1,137.693,124.709Zm0,0" transform="translate(-106.038 -106.038)"/>
  <path id="Path_117" data-name="Path 117" d="M366.564,72.128A5.564,5.564,0,1,0,361,66.564,5.571,5.571,0,0,0,366.564,72.128Zm0-7.419a1.855,1.855,0,1,1-1.855,1.855A1.857,1.857,0,0,1,366.564,64.709Zm0,0" transform="translate(-316.363 -53.457)"/>
</svg>
