<svg xmlns="http://www.w3.org/2000/svg" width="49.275" height="49.281" viewBox="0 0 49.275 49.281">
  <g id="letter" transform="translate(0 -0.001)">
    <path id="Path_105" data-name="Path 105" d="M341.608,368.48a.732.732,0,0,0,.469-1.294l-11.669-9.715a.732.732,0,0,0-.937,1.125l11.669,9.715A.728.728,0,0,0,341.608,368.48Zm0,0" transform="translate(-297.521 -322.91)"/>
    <path id="Path_106" data-name="Path 106" d="M58.234,357.471l-11.669,9.715a.732.732,0,0,0,.937,1.125L59.17,358.6a.732.732,0,0,0-.937-1.125Zm0,0" transform="translate(-41.845 -322.91)"/>
    <path id="Path_107" data-name="Path 107" d="M49.275,18.035a.732.732,0,0,0-.264-.562l-5.153-4.29v-4.7a6.046,6.046,0,0,0-6.04-6.04H30.963l-.329-.274a9.369,9.369,0,0,0-11.993,0l-.329.274H16.832a.732.732,0,0,0,0,1.464H37.819A4.581,4.581,0,0,1,42.4,8.486v5.036h0V22.2L29.7,32.775a7.9,7.9,0,0,1-10.12,0L6.88,22.2v-8.68h0V8.486A4.582,4.582,0,0,1,11.458,3.91H13.9a.732.732,0,1,0,0-1.464H11.458a6.047,6.047,0,0,0-6.041,6.04v4.7L.264,17.473A.731.731,0,0,0,0,18.03s0,0,0,.006V43.96a5.328,5.328,0,0,0,5.322,5.322H38.1a.732.732,0,0,0,0-1.463H5.322A3.863,3.863,0,0,1,1.464,43.96V19.6L5.683,23.11h0L18.641,33.9a9.369,9.369,0,0,0,11.993,0L43.59,23.112l.006-.005,4.216-3.51V43.96a3.863,3.863,0,0,1-3.858,3.858H41.03a.732.732,0,0,0,0,1.464h2.923a5.328,5.328,0,0,0,5.322-5.322V18.041S49.275,18.037,49.275,18.035ZM28.451,2.446H20.825A7.908,7.908,0,0,1,28.451,2.446ZM5.417,15.087v5.9L1.876,18.036Zm38.442,5.9v-5.9L47.4,18.035Zm0,0"/>
    <path id="Path_108" data-name="Path 108" d="M159.057,210.625H137.591a.732.732,0,1,0,0,1.464h21.466a.732.732,0,1,0,0-1.464Zm0,0" transform="translate(-123.686 -190.351)"/>
    <path id="Path_109" data-name="Path 109" d="M159.057,254.781H137.591a.732.732,0,1,0,0,1.464h21.466a.732.732,0,1,0,0-1.464Zm0,0" transform="translate(-123.686 -230.257)"/>
    <path id="Path_110" data-name="Path 110" d="M159.057,122.309H137.591a.732.732,0,1,0,0,1.464h21.466a.732.732,0,1,0,0-1.464Zm0,0" transform="translate(-123.686 -110.535)"/>
    <path id="Path_111" data-name="Path 111" d="M310.227,166.469h-5.366a.732.732,0,0,0,0,1.463h5.366a.732.732,0,0,0,0-1.463Zm0,0" transform="translate(-274.856 -150.445)"/>
    <path id="Path_112" data-name="Path 112" d="M137.591,167.932h13.66a.732.732,0,0,0,0-1.463h-13.66a.732.732,0,1,0,0,1.463Zm0,0" transform="translate(-123.686 -150.445)"/>
  </g>
</svg>
