<svg xmlns="http://www.w3.org/2000/svg" width="154.986" height="187.228" viewBox="0 0 154.986 187.228">
  <g id="Group_1" data-name="Group 1" transform="translate(-607.777 -540)">
    <path id="Path_1" data-name="Path 1" d="M736.374,595.385a2.776,2.776,0,0,0-2.742-2.625h-20.7V554.473A14.489,14.489,0,0,0,698.46,540H622.249a14.489,14.489,0,0,0-14.472,14.473v26.746a2.748,2.748,0,0,0,5.5,0v-15.2h94.162V592.76H645.7a2.782,2.782,0,0,0-2.748,2.748v93.8a2.771,2.771,0,0,0,4.691,1.943l25.576-25.575h34.219v32.609H613.273V594.165a2.748,2.748,0,0,0-5.5,0V712.754a14.489,14.489,0,0,0,14.472,14.473H698.46a14.489,14.489,0,0,0,14.472-14.473V665.673h20.7a2.746,2.746,0,0,0,2.748-2.748V595.508C736.379,595.468,736.378,595.426,736.374,595.385Zm-123.1-34.867v-6.045a8.985,8.985,0,0,1,8.976-8.977H698.46a8.986,8.986,0,0,1,8.976,8.977v6.045ZM698.46,721.731H622.249a8.985,8.985,0,0,1-8.976-8.977v-8.976h94.162v8.976A8.986,8.986,0,0,1,698.46,721.731ZM725.8,598.258l-36.134,28.907-36.132-28.907Zm5.085,2.97V648.71L699.918,626Zm-82.437,0L679.414,626l-30.967,22.71Zm23.632,58.949a2.756,2.756,0,0,0-1.944.805l-21.688,21.689V655.525l35.41-25.969,4.091,3.273a2.774,2.774,0,0,0,3.435,0l4.091-3.273,35.41,25.969v4.652Z" transform="translate(0 0)" fill="#040505"/>
    <path id="Path_2" data-name="Path 2" d="M645.621,547.309h-5.862a2.748,2.748,0,1,0,0,5.5h5.862a2.748,2.748,0,1,0,0-5.5Z" transform="translate(17.664 4.416)" fill="#040505"/>
    <path id="Path_3" data-name="Path 3" d="M653.653,547.309h-2.931a2.748,2.748,0,1,0,0,5.5h2.931a2.748,2.748,0,1,0,0-5.5Z" transform="translate(24.289 4.416)" fill="#040505"/>
    <path id="Path_4" data-name="Path 4" d="M633.554,547.309h-2.931a2.748,2.748,0,1,0,0,5.5h2.931a2.748,2.748,0,1,0,0-5.5Z" transform="translate(12.144 4.416)" fill="#040505"/>
    <path id="Path_5" data-name="Path 5" d="M649.656,645.973H637.932a2.749,2.749,0,0,0,0,5.5h11.724a2.749,2.749,0,1,0,0-5.5Z" transform="translate(16.56 64.033)" fill="#040505"/>
    <path id="Path_6" data-name="Path 6" d="M687.264,561.926a2.748,2.748,0,1,0,0,5.5A14.855,14.855,0,0,1,702.1,582.26a2.748,2.748,0,1,0,5.5,0A20.357,20.357,0,0,0,687.264,561.926Z" transform="translate(46.369 13.249)" fill="#040505"/>
    <path id="Path_7" data-name="Path 7" d="M694.573,556.444a2.748,2.748,0,0,0,0,5.5,11.921,11.921,0,0,1,11.907,11.908,2.749,2.749,0,0,0,5.5,0A17.425,17.425,0,0,0,694.573,556.444Z" transform="translate(50.785 9.936)" fill="#040505"/>
  </g>
</svg>
