<svg xmlns="http://www.w3.org/2000/svg" width="167.673" height="54.848" viewBox="0 0 167.673 54.848">
  <g id="Group_107" data-name="Group 107" transform="translate(0)">
    <path id="Rectangle_51" data-name="Rectangle 51" d="M5.688,0h156.3a5.687,5.687,0,0,1,5.687,5.687V49.161a5.687,5.687,0,0,1-5.687,5.687H5.686A5.686,5.686,0,0,1,0,49.162V5.688A5.688,5.688,0,0,1,5.688,0Z" transform="translate(0)"/>
    <g id="Group_103" data-name="Group 103" transform="translate(11.248 8.527)">
      <path id="Path_151" data-name="Path 151" d="M615.525,1017.113a27.18,27.18,0,0,1-2.454,4.585c-1.6,2.428-3.842,5.45-6.627,5.477-2.475.022-3.11-1.611-6.468-1.593s-4.06,1.621-6.535,1.6c-2.785-.025-4.915-2.755-6.509-5.182-4.46-6.789-4.925-14.755-2.175-18.99a9.864,9.864,0,0,1,7.936-4.773c2.952,0,4.808,1.62,7.248,1.62,2.367,0,3.81-1.621,7.223-1.621a9.629,9.629,0,0,1,7.26,3.833A8.307,8.307,0,0,0,615.525,1017.113Z" transform="translate(-583.049 -989.386)" fill="#fff"/>
      <g id="Group_102" data-name="Group 102" transform="translate(15.61)">
        <path id="Path_152" data-name="Path 152" d="M600.941,997.581a8.285,8.285,0,0,0,1.84-6.136A8.95,8.95,0,0,0,597,994.552a7.687,7.687,0,0,0-1.889,5.986A7.558,7.558,0,0,0,600.941,997.581Z" transform="translate(-595.026 -991.445)" fill="#fff"/>
      </g>
    </g>
    <g id="Group_106" data-name="Group 106" transform="translate(50.922 8.608)">
      <g id="Group_104" data-name="Group 104" transform="translate(0 13.139)">
        <path id="Path_153" data-name="Path 153" d="M619.878,1001.818l-6.388,18.8h2.925l1.907-5.774h6.186l1.96,5.774h3.007l-6.415-18.8Zm1.516,3.092c.215.839.448,1.71.747,2.652l1.722,4.985h-4.9l1.7-5.018C620.919,1006.716,621.164,1005.837,621.393,1004.91Z" transform="translate(-613.49 -1001.518)" fill="#fff"/>
        <path id="Path_154" data-name="Path 154" d="M633.781,1005.558a5.325,5.325,0,0,0-4.523,2.169l-.113-1.87h-2.6l.016.24c.077,1.165.109,2.448.109,4.288v14.493h2.844v-6.763a5,5,0,0,0,3.889,1.671,5.864,5.864,0,0,0,4.31-1.833,7.77,7.77,0,0,0,1.9-5.471,7.569,7.569,0,0,0-1.653-5A5.414,5.414,0,0,0,633.781,1005.558Zm-.709,2.355c2.536,0,3.672,2.349,3.672,4.676,0,3-1.448,4.868-3.78,4.868a3.448,3.448,0,0,1-3.351-2.639,3.6,3.6,0,0,1-.1-.922v-2.287a4.262,4.262,0,0,1,.091-.7c.014-.078.029-.155.04-.231A3.6,3.6,0,0,1,633.072,1007.913Z" transform="translate(-609.531 -1000.384)" fill="#fff"/>
        <path id="Path_155" data-name="Path 155" d="M645.021,1005.558a5.329,5.329,0,0,0-4.524,2.169l-.113-1.87h-2.6l.016.24c.077,1.167.109,2.448.109,4.288v14.493h2.845v-6.763a4.992,4.992,0,0,0,3.887,1.671,5.872,5.872,0,0,0,4.313-1.833,7.78,7.78,0,0,0,1.9-5.471,7.569,7.569,0,0,0-1.654-5A5.41,5.41,0,0,0,645.021,1005.558Zm-.709,2.355c2.535,0,3.67,2.349,3.67,4.676,0,3-1.449,4.868-3.778,4.868a3.448,3.448,0,0,1-3.351-2.639,3.606,3.606,0,0,1-.1-.922v-2.287a4.263,4.263,0,0,1,.09-.705c.014-.077.029-.152.042-.228A3.6,3.6,0,0,1,644.312,1007.913Z" transform="translate(-606.122 -1000.384)" fill="#fff"/>
        <path id="Path_156" data-name="Path 156" d="M658.993,1009.855c-2.655-1.028-3.506-1.838-3.506-3.331,0-1.258,1-2.526,3.234-2.526a6.455,6.455,0,0,1,3.339.838l.241.149.8-2.375-.159-.093a8.241,8.241,0,0,0-4.142-.929c-3.628,0-6.162,2.141-6.162,5.207,0,2.472,1.587,4.2,4.993,5.439,2.415.9,3.313,1.827,3.313,3.412,0,1.793-1.387,2.906-3.615,2.906a7.784,7.784,0,0,1-4.1-1.163l-.248-.158-.762,2.428.139.094a9.747,9.747,0,0,0,4.808,1.236c4.889,0,6.623-2.981,6.623-5.534C663.792,1012.823,662.4,1011.2,658.993,1009.855Z" transform="translate(-601.742 -1001.588)" fill="#fff"/>
        <path id="Path_157" data-name="Path 157" d="M666.153,1003.3l-2.79.876v2.363H661.32v2.274h2.042v6.965a5.321,5.321,0,0,0,.985,3.609,3.644,3.644,0,0,0,2.753,1.08,6.677,6.677,0,0,0,2.2-.34l.159-.056-.136-2.277-.274.083a4.276,4.276,0,0,1-1.323.152c-1.1,0-1.573-.7-1.573-2.334v-6.883h3.432v-2.274h-3.432Z" transform="translate(-598.982 -1001.068)" fill="#fff"/>
        <path id="Path_158" data-name="Path 158" d="M674.643,1005.558c-3.98,0-6.76,2.97-6.76,7.222,0,4.125,2.69,7.005,6.543,7.005h.026c3.257,0,6.76-2.269,6.76-7.25a7.188,7.188,0,0,0-1.813-5.031A6.328,6.328,0,0,0,674.643,1005.558Zm-.082,2.246c2.56,0,3.724,2.495,3.724,4.814,0,2.852-1.59,4.921-3.777,4.921h-.029c-2.157,0-3.724-2.036-3.724-4.839C670.756,1010.263,671.932,1007.8,674.561,1007.8Z" transform="translate(-596.991 -1000.384)" fill="#fff"/>
        <path id="Path_159" data-name="Path 159" d="M686.443,1005.69l-.171-.043a2.729,2.729,0,0,0-.706-.089,4.057,4.057,0,0,0-3.567,2.29l-.083-1.992h-2.553l.017.24c.076,1.126.107,2.39.107,4.1l-.026,9.294H682.3v-7.25a7.252,7.252,0,0,1,.08-1.1,3.142,3.142,0,0,1,2.992-2.866,7.4,7.4,0,0,1,.764.047l.3.033Z" transform="translate(-593.509 -1000.384)" fill="#fff"/>
        <path id="Path_160" data-name="Path 160" d="M691.2,1005.537c-3.787,0-6.433,3.026-6.433,7.359,0,4.172,2.631,6.869,6.706,6.869a10.892,10.892,0,0,0,4.5-.864l.172-.077-.547-2.119-.237.1a8.807,8.807,0,0,1-3.563.637,3.955,3.955,0,0,1-4.262-4.125l9.183.029.036-.182a6.372,6.372,0,0,0,.085-1.187C696.842,1009,695.366,1005.537,691.2,1005.537Zm-.19,2.165a2.807,2.807,0,0,1,2.089.8,4.046,4.046,0,0,1,.979,2.648H687.59C687.855,1009.5,688.882,1007.7,691.01,1007.7Z" transform="translate(-591.87 -1000.39)" fill="#fff"/>
      </g>
      <g id="Group_105" data-name="Group 105">
        <path id="Path_161" data-name="Path 161" d="M613.49,992.006a20.689,20.689,0,0,1,2.728-.185,6.093,6.093,0,0,1,4.006,1.1,3.9,3.9,0,0,1,1.408,3.209,4.5,4.5,0,0,1-1.423,3.459,6.6,6.6,0,0,1-4.386,1.28,19.767,19.767,0,0,1-2.333-.105Zm1.29,7.882a9.308,9.308,0,0,0,1.292.052c2.729.013,4.21-1.373,4.21-3.776.016-2.126-1.3-3.433-4-3.433a8.123,8.123,0,0,0-1.5.119Z" transform="translate(-613.49 -991.412)" fill="#fff"/>
        <path id="Path_162" data-name="Path 162" d="M624.04,1000.366a3.207,3.207,0,0,1-3.4-3.287,3.3,3.3,0,0,1,3.522-3.394,3.181,3.181,0,0,1,3.417,3.274,3.308,3.308,0,0,1-3.52,3.407Zm.044-.872A2.273,2.273,0,0,0,626.24,997a2.171,2.171,0,1,0-2.171,2.495Z" transform="translate(-611.322 -990.846)" fill="#fff"/>
        <path id="Path_163" data-name="Path 163" d="M627.836,993.8l.953,3.236c.19.712.382,1.385.514,2.046h.044c.162-.648.4-1.335.631-2.033l1.159-3.249h1.087l1.1,3.2c.263.752.469,1.439.631,2.087H634A17.626,17.626,0,0,1,634.54,997l1.011-3.209h1.277l-2.289,6.39h-1.174l-1.084-3.05a20.6,20.6,0,0,1-.632-2.111h-.029a17.547,17.547,0,0,1-.646,2.126l-1.144,3.036h-1.173l-2.143-6.39Z" transform="translate(-609.539 -990.813)" fill="#fff"/>
        <path id="Path_164" data-name="Path 164" d="M635.433,995.561c0-.674-.014-1.2-.059-1.731h1.144l.073,1.044h.03a2.689,2.689,0,0,1,2.347-1.189,2.431,2.431,0,0,1,2.509,2.72v3.815h-1.29v-3.683c0-1.03-.427-1.9-1.645-1.9a1.843,1.843,0,0,0-1.731,1.187,1.572,1.572,0,0,0-.087.542v3.854h-1.292Z" transform="translate(-606.852 -990.846)" fill="#fff"/>
        <path id="Path_165" data-name="Path 165" d="M641.666,991.507h1.292v9.374h-1.292Z" transform="translate(-604.943 -991.507)" fill="#fff"/>
        <path id="Path_166" data-name="Path 166" d="M647.31,1000.366a3.207,3.207,0,0,1-3.4-3.287,3.3,3.3,0,0,1,3.52-3.394,3.182,3.182,0,0,1,3.419,3.274,3.309,3.309,0,0,1-3.522,3.407Zm.044-.872A2.274,2.274,0,0,0,649.511,997a2.171,2.171,0,1,0-2.171,2.495Z" transform="translate(-604.264 -990.846)" fill="#fff"/>
        <path id="Path_167" data-name="Path 167" d="M655.613,998.69a9.68,9.68,0,0,0,.1,1.53h-1.159l-.117-.8H654.4a2.726,2.726,0,0,1-2.171.95,1.936,1.936,0,0,1-2.171-1.835c0-1.544,1.526-2.39,4.27-2.377v-.132c0-.528-.162-1.491-1.613-1.478a3.709,3.709,0,0,0-1.864.474l-.293-.778a4.98,4.98,0,0,1,2.347-.555c2.186,0,2.714,1.333,2.714,2.615Zm-1.26-1.731c-1.409-.026-3.008.2-3.008,1.44a1.08,1.08,0,0,0,1.2,1.109,1.791,1.791,0,0,0,1.745-1.07,1.049,1.049,0,0,0,.06-.37Z" transform="translate(-602.399 -990.846)" fill="#fff"/>
        <path id="Path_168" data-name="Path 168" d="M662.159,991.507v7.724c0,.568.016,1.215.059,1.65h-1.159L661,999.773h-.03a2.655,2.655,0,0,1-2.406,1.254,3.047,3.047,0,0,1-3.051-3.248,3.186,3.186,0,0,1,3.183-3.433,2.44,2.44,0,0,1,2.143.964h.029v-3.8Zm-1.292,5.585a1.949,1.949,0,0,0-.059-.5,1.866,1.866,0,0,0-1.862-1.333,2.186,2.186,0,0,0-2.127,2.456,2.119,2.119,0,0,0,2.1,2.376,1.92,1.92,0,0,0,1.892-1.385,1.81,1.81,0,0,0,.059-.5Z" transform="translate(-600.743 -991.507)" fill="#fff"/>
        <path id="Path_169" data-name="Path 169" d="M667.651,1000.366a3.207,3.207,0,0,1-3.4-3.287,3.3,3.3,0,0,1,3.52-3.394,3.182,3.182,0,0,1,3.419,3.274,3.308,3.308,0,0,1-3.52,3.407Zm.046-.872A2.273,2.273,0,0,0,669.852,997a2.171,2.171,0,1,0-2.171,2.495Z" transform="translate(-598.094 -990.846)" fill="#fff"/>
        <path id="Path_170" data-name="Path 170" d="M670.837,995.561c0-.674-.016-1.2-.06-1.731h1.144l.074,1.044h.029a2.692,2.692,0,0,1,2.347-1.189,2.43,2.43,0,0,1,2.509,2.72v3.815h-1.29v-3.683c0-1.03-.425-1.9-1.643-1.9a1.846,1.846,0,0,0-1.732,1.187,1.6,1.6,0,0,0-.087.542v3.854h-1.29Z" transform="translate(-596.113 -990.846)" fill="#fff"/>
        <path id="Path_171" data-name="Path 171" d="M681.2,992.622v1.53h1.848v.885H681.2v3.446c0,.792.25,1.241.968,1.241a2.69,2.69,0,0,0,.748-.078l.059.884a3.862,3.862,0,0,1-1.144.159,1.957,1.957,0,0,1-1.394-.489,2.319,2.319,0,0,1-.5-1.677v-3.485h-1.1v-.885h1.1v-1.174Z" transform="translate(-593.668 -991.169)" fill="#fff"/>
        <path id="Path_172" data-name="Path 172" d="M683.183,991.507h1.29v3.987h.03a2.2,2.2,0,0,1,.925-.818,2.72,2.72,0,0,1,1.319-.33,2.429,2.429,0,0,1,2.479,2.733v3.8h-1.29v-3.67c0-1.043-.425-1.9-1.644-1.9a1.856,1.856,0,0,0-1.731,1.161,1.285,1.285,0,0,0-.089.555v3.854h-1.29Z" transform="translate(-592.35 -991.507)" fill="#fff"/>
        <path id="Path_173" data-name="Path 173" d="M690.283,997.227a2.164,2.164,0,0,0,2.422,2.218,5.4,5.4,0,0,0,1.967-.317l.235.818a6.375,6.375,0,0,1-2.377.409c-2.173,0-3.492-1.307-3.492-3.222a3.253,3.253,0,0,1,3.344-3.459,2.8,2.8,0,0,1,2.919,3.011,2.647,2.647,0,0,1-.044.554Zm3.772-.832a1.715,1.715,0,0,0-1.776-1.889,2.009,2.009,0,0,0-1.98,1.889Z" transform="translate(-590.575 -990.849)" fill="#fff"/>
      </g>
    </g>
  </g>
</svg>
