<svg xmlns="http://www.w3.org/2000/svg" width="77.147" height="63.142" viewBox="0 0 77.147 63.142">
  <path id="twitter" d="M77.147,8.433c-4.853.224-4.747.205-5.3.251L74.725.476s-8.971,3.3-11.245,3.891a18,18,0,0,0-21.2-1.7,14.682,14.682,0,0,0-7.057,15.1A39.159,39.159,0,0,1,9.856,3.476L7.728.92,6.137,3.841a17.649,17.649,0,0,0-1.88,11.881A17.07,17.07,0,0,0,5.911,20.36l-1.826-.707L3.869,22.7a16.277,16.277,0,0,0,2.76,9.676,17.2,17.2,0,0,0,2.15,2.652l-.944-.145,1.151,3.5A16.993,16.993,0,0,0,17.722,48.5c-4.074,1.729-7.364,2.832-12.773,4.611L0,54.74l4.571,2.5c1.743.953,7.9,4.135,13.986,5.09,13.526,2.121,28.754.394,39.006-8.839,8.635-7.777,11.469-18.839,10.88-30.352a7.193,7.193,0,0,1,1.344-4.683C71.7,15.9,77.135,8.45,77.147,8.433ZM66.173,15.748a11.713,11.713,0,0,0-2.24,7.621c.594,11.612-2.566,20.618-9.391,26.765-7.974,7.181-20.835,10-35.284,7.733a34.991,34.991,0,0,1-7.56-2.247A119.875,119.875,0,0,0,25.39,49.993l7.9-3.737L24.568,45.7a12.328,12.328,0,0,1-9.789-5.576,15.635,15.635,0,0,0,3.318-.553l8.314-2.315L18.028,35.2A12.486,12.486,0,0,1,10.4,29.9a12.787,12.787,0,0,1-1.653-3.647,20.927,20.927,0,0,0,3.4.543l7.759.768-6.148-4.8a12.94,12.94,0,0,1-4.9-13.636c13.825,14.339,30.057,13.261,31.691,13.64a26.765,26.765,0,0,0-.463-3.834c-2.092-7.4,2.493-11.152,4.562-12.424,4.32-2.655,11.178-3.055,15.928,1.319a4.045,4.045,0,0,0,3.712.993,31.24,31.24,0,0,0,3.058-.93l-1.949,5.567,2.489,0C67.413,14.09,66.85,14.844,66.173,15.748Zm0,0" transform="translate(0 0)"/>
</svg>
